<svg xmlns="http://www.w3.org/2000/svg" viewBox="-0.78 8.1 111.21 33.77" role="img" aria-label="소호팁">
  <title>소호팁</title>
  <path fill="#2F3136" d="M10.04 29.75L14.33 29.75C14.14 26.79 11.70 24.96 7.71 24.96C3.69 24.96 1.18 26.71 1.20 29.66C1.18 31.93 2.65 33.41 5.58 33.96L8.12 34.42C9.41 34.70 9.98 35.11 10.01 35.76C9.98 36.58 9.13 37.07 7.88 37.07C6.51 37.07 5.58 36.50 5.41 35.43L0.82 35.43C1.12 38.39 3.61 40.27 7.85 40.27C11.87 40.27 14.66 38.30 14.68 35.27C14.66 33.11 13.23 31.82 10.28 31.25L7.46 30.70C6.18 30.46 5.74 29.99 5.77 29.42C5.74 28.65 6.64 28.13 7.79 28.13C9.02 28.13 9.90 28.76 10.04 29.75M23.84 40.27C28.49 40.27 31.31 37.18 31.31 32.62C31.31 28.05 28.49 24.96 23.84 24.96C19.20 24.96 16.38 28.05 16.38 32.62C16.38 37.18 19.20 40.27 23.84 40.27M23.87 36.80C22.07 36.80 21.08 35.08 21.08 32.59C21.08 30.10 22.07 28.38 23.87 28.38C25.62 28.38 26.61 30.10 26.61 32.59C26.61 35.08 25.62 36.80 23.87 36.80M38.31 31.50C38.31 29.77 39.35 28.73 40.88 28.73C42.44 28.73 43.34 29.75 43.31 31.41L43.31 40L47.93 40L47.93 30.54C47.93 27.15 45.88 24.96 42.77 24.96C40.55 24.96 38.99 26.05 38.31 27.86L38.14 27.86L38.14 20.20L33.69 20.20L33.69 40L38.31 40M57.72 40.27C62.37 40.27 65.19 37.18 65.19 32.62C65.19 28.05 62.37 24.96 57.72 24.96C53.07 24.96 50.26 28.05 50.26 32.62C50.26 37.18 53.07 40.27 57.72 40.27M57.75 36.80C55.95 36.80 54.96 35.08 54.96 32.59C54.96 30.10 55.95 28.38 57.75 28.38C59.50 28.38 60.48 30.10 60.48 32.59C60.48 35.08 59.50 36.80 57.75 36.80"/>
  <path fill="#2F80ED" d="M66.91 24L72.93 24L72.93 40L77.55 40L77.55 24L83.56 24L83.56 20.20L66.91 20.20M90.54 20.20L85.89 20.20L85.89 40L90.54 40M93.54 40L98.19 40L98.19 33.79L101.50 33.79C106.04 33.79 108.83 31.11 108.83 27.01C108.83 22.99 106.09 20.20 101.64 20.20L93.54 20.20M98.19 30.10L98.19 23.98L100.65 23.98C102.84 23.98 104.02 25.15 104.02 27.01C104.02 28.87 102.84 30.10 100.65 30.10"/>
  <g stroke="#2F80ED" stroke-width="1.7" stroke-linecap="round"><line x1="88.21" y1="12.20" x2="88.21" y2="9.70"/><line x1="85.71" y1="12.70" x2="83.81" y2="10.60"/><line x1="90.71" y1="12.70" x2="92.61" y2="10.60"/></g>
  <circle cx="88.21" cy="15.85" r="3.05" fill="#2F80ED"/>
</svg>
